<svg width="39" height="38" viewBox="0 0 39 38" fill="none" xmlns="http://www.w3.org/2000/svg">
<path opacity="0.8" d="M13.2812 25.0625H2.78125C2.38343 25.0625 2.00189 24.9045 1.72059 24.6232C1.43929 24.3419 1.28125 23.9603 1.28125 23.5625V14.5625C1.28125 14.1647 1.43929 13.7831 1.72059 13.5018C2.00189 13.2205 2.38343 13.0625 2.78125 13.0625H13.2812V2.5625C13.2812 2.16468 13.4393 1.78314 13.7206 1.50184C14.0019 1.22054 14.3834 1.0625 14.7812 1.0625H23.7812C24.1791 1.0625 24.5606 1.22054 24.8419 1.50184C25.1232 1.78314 25.2812 2.16468 25.2812 2.5625V13.0625H35.7812C36.1791 13.0625 36.5606 13.2205 36.8419 13.5018C37.1232 13.7831 37.2812 14.1647 37.2812 14.5625V23.5625C37.2812 23.9603 37.1232 24.3419 36.8419 24.6232C36.5606 24.9045 36.1791 25.0625 35.7812 25.0625H25.2812V35.5625C25.2812 35.9603 25.1232 36.3419 24.8419 36.6232C24.5606 36.9045 24.1791 37.0625 23.7812 37.0625H14.7812C14.3834 37.0625 14.0019 36.9045 13.7206 36.6232C13.4393 36.3419 13.2812 35.9603 13.2812 35.5625V25.0625Z" fill="#008867"/>
<path d="M13.2812 25.0625H2.78125C2.38343 25.0625 2.00189 24.9045 1.72059 24.6232C1.43929 24.3419 1.28125 23.9603 1.28125 23.5625V14.5625C1.28125 14.1647 1.43929 13.7831 1.72059 13.5018C2.00189 13.2205 2.38343 13.0625 2.78125 13.0625H13.2812V2.5625C13.2812 2.16468 13.4393 1.78314 13.7206 1.50184C14.0019 1.22054 14.3834 1.0625 14.7812 1.0625H23.7812C24.1791 1.0625 24.5606 1.22054 24.8419 1.50184C25.1232 1.78314 25.2812 2.16468 25.2812 2.5625V13.0625H35.7812C36.1791 13.0625 36.5606 13.2205 36.8419 13.5018C37.1232 13.7831 37.2812 14.1647 37.2812 14.5625V23.5625C37.2812 23.9603 37.1232 24.3419 36.8419 24.6232C36.5606 24.9045 36.1791 25.0625 35.7812 25.0625H25.2812V35.5625C25.2812 35.9603 25.1232 36.3419 24.8419 36.6232C24.5606 36.9045 24.1791 37.0625 23.7812 37.0625H14.7812C14.3834 37.0625 14.0019 36.9045 13.7206 36.6232C13.4393 36.3419 13.2812 35.9603 13.2812 35.5625V25.0625Z" stroke="#008867" stroke-width="1.5" stroke-linecap="round" stroke-linejoin="round"/>
</svg>
