<svg width="40" height="40" viewBox="0 0 40 40" fill="none" xmlns="http://www.w3.org/2000/svg">
<path d="M11.0599 20.0003C11.0599 18.3775 11.5029 16.8547 12.2679 15.5285C12.5107 15.1076 12.4692 14.5695 12.1256 14.2259L5.61857 7.7188C5.20851 7.30874 4.53477 7.33105 4.1786 7.7887C1.55007 11.1661 0 15.4044 0 20.0003C0 24.5944 1.54889 28.8312 4.15991 32.208C4.51513 32.6674 5.18991 32.6913 5.60105 32.2812L12.1241 25.7746C12.4685 25.4311 12.5104 24.8924 12.2674 24.4711C11.5026 23.1451 11.0599 21.6227 11.0599 20.0003Z" fill="#008867"/>
<path d="M20.0602 11.0001C21.6829 11.0001 23.2057 11.443 24.5318 12.208C24.9527 12.4508 25.4909 12.4093 25.8345 12.0657L32.2837 5.61646C32.6929 5.20719 32.6717 4.53501 32.2157 4.17851C28.8539 1.55003 24.6144 0 20.0002 0C15.4061 0 11.1865 1.54885 7.81241 4.1598C7.35315 4.51518 7.32926 5.18995 7.73935 5.60109L14.2204 12.0987C14.5663 12.4455 15.1097 12.4853 15.5322 12.2375C16.863 11.4567 18.4045 11.0001 20.0602 11.0001Z" fill="#008867"/>
<path d="M35.5055 7.39203C35.3217 7.16723 34.9849 7.15499 34.7793 7.36004L27.6605 14.4606C27.4871 14.6336 27.4658 14.9059 27.5992 15.1112C28.5155 16.5212 29.0599 18.1928 29.0599 20.0005C29.0599 21.8084 28.5153 23.4802 27.5989 24.8903C27.4656 25.0955 27.4868 25.3674 27.6598 25.5404L34.7793 32.66C34.9848 32.8655 35.322 32.8535 35.5059 32.6285C38.3183 29.1861 39.9998 24.7873 39.9998 20.0005C39.9998 15.2135 38.3181 10.833 35.5055 7.39203Z" fill="#008867"/>
<path d="M20.0597 29.0003C18.2518 29.0003 16.58 28.4558 15.1699 27.5394C14.9648 27.4061 14.6928 27.4272 14.5198 27.6002L7.34025 34.7798C7.13476 34.9853 7.14679 35.3225 7.37183 35.5064C10.8142 38.3188 15.2129 40.0004 19.9997 40.0004C24.8067 40.0004 29.2071 38.3181 32.632 35.4867C32.8551 35.3023 32.866 34.9667 32.6614 34.7621L25.5368 27.6375C25.365 27.4657 25.0953 27.4435 24.8905 27.5742C23.4832 28.4726 21.831 29.0003 20.0597 29.0003Z" fill="#008867"/>
</svg>
