<svg width="36" height="36" viewBox="0 0 36 36" fill="none" xmlns="http://www.w3.org/2000/svg">
<path d="M32.8696 6.93L21.1007 0.756C19.1789 -0.252 16.8013 -0.252 14.8597 0.756L3.11062 6.93C1.18877 7.938 0 9.81 0 11.844V24.156C0 26.172 1.18877 28.044 3.11062 29.07L14.8795 35.244C16.8013 36.252 19.1789 36.252 21.1205 35.244L32.8894 29.07C34.8112 28.062 36 26.19 36 24.156V11.844C35.9802 9.81 34.7914 7.956 32.8696 6.93ZM22.448 20.52L20.3875 21.6L18.3269 22.68C15.6918 24.066 13.5322 22.932 13.5322 20.16V18V15.84C13.5322 13.068 15.6918 11.934 18.3269 13.32L20.3875 14.4L22.448 15.48C25.0831 16.866 25.0831 19.134 22.448 20.52Z" fill="#008867"/>
</svg>
