<svg width="36" height="36" viewBox="0 0 36 36" fill="none" xmlns="http://www.w3.org/2000/svg">
<path d="M36 34.6493C36 35.3876 35.388 35.9999 34.65 35.9999H1.35C0.612 35.9999 0 35.3876 0 34.6493C0 33.9109 0.612 33.2986 1.35 33.2986H34.65C35.388 33.2986 36 33.9109 36 34.6493Z" fill="#008867"/>
<path d="M24.1019 4.52026L4.76987 23.8619C4.03187 24.6003 2.84387 24.6003 2.12387 23.8619H2.10587C-0.39613 21.3407 -0.39613 17.2706 2.10587 14.7674L14.9759 1.89095C17.4959 -0.630316 21.5639 -0.630316 24.0839 1.89095C24.8219 2.5933 24.8219 3.7999 24.1019 4.52026Z" fill="#008867"/>
<path d="M33.8759 11.6701L28.3859 6.17731C27.6479 5.43894 26.4599 5.43894 25.7399 6.17731L6.40787 25.519C5.66987 26.2394 5.66987 27.4279 6.40787 28.1663L11.8979 33.6771C14.4179 36.1803 18.4859 36.1803 21.0059 33.6771L33.8579 20.8006C36.4139 18.2794 36.4139 14.1913 33.8759 11.6701ZM19.3679 27.9322L17.1899 30.1293C16.7399 30.5795 16.0019 30.5795 15.5339 30.1293C15.0839 29.6791 15.0839 28.9407 15.5339 28.4725L17.7299 26.2754C18.1619 25.8432 18.9179 25.8432 19.3679 26.2754C19.8179 26.7256 19.8179 27.5 19.3679 27.9322ZM26.5139 20.7826L22.1219 25.1948C21.6719 25.627 20.9339 25.627 20.4659 25.1948C20.0159 24.7446 20.0159 24.0062 20.4659 23.538L24.8759 19.1258C25.3079 18.6936 26.0639 18.6936 26.5139 19.1258C26.9639 19.594 26.9639 20.3324 26.5139 20.7826Z" fill="#008867"/>
</svg>
