<svg width="36" height="37" viewBox="0 0 36 37" fill="none" xmlns="http://www.w3.org/2000/svg">
<path d="M34.3625 9.37955C32.8322 7.68727 30.2758 6.84113 26.5672 6.84113H26.1351V6.76912C26.1351 3.74462 26.1351 0 19.366 0H16.6295C9.86042 0 9.86042 3.76262 9.86042 6.76912V6.85913H9.42835C5.70174 6.85913 3.16332 7.70527 1.63306 9.39755C-0.149231 11.3779 -0.0952219 14.0423 0.0848079 15.8606L0.102811 15.9866L0.260296 17.6402C0.274561 17.79 0.354985 17.9251 0.480639 18.0078C0.868721 18.2634 1.73489 18.8277 2.22716 19.1012C2.4792 19.2632 2.74925 19.4072 3.01929 19.5512C6.0978 21.2435 9.48236 22.3777 12.9209 22.9358C13.083 24.6281 13.8211 26.6084 17.7637 26.6084C21.7064 26.6084 22.4805 24.6461 22.6065 22.8998C26.2791 22.3057 29.8257 21.0275 33.0303 19.1552C33.1383 19.1012 33.2103 19.0471 33.3003 18.9931C34.0648 18.561 34.86 18.0215 35.5725 17.5021C35.6851 17.42 35.7575 17.2941 35.7728 17.1556L35.8207 16.7248L35.9107 15.8786C35.9287 15.7706 35.9287 15.6806 35.9467 15.5546C36.0908 13.7363 36.0548 11.2519 34.3625 9.37955ZM19.9601 21.7116C19.9601 23.6199 19.9601 23.908 17.7457 23.908C15.5314 23.908 15.5314 23.5659 15.5314 21.7296V19.4612H19.9601V21.7116ZM12.4348 6.84113V6.76912C12.4348 3.70861 12.4348 2.57443 16.6295 2.57443H19.366C23.5607 2.57443 23.5607 3.72662 23.5607 6.76912V6.85913H12.4348V6.84113Z" fill="#008867"/>
<path d="M34.6225 21.2274C34.9751 21.0569 35.3788 21.3381 35.3434 21.7281L34.6323 29.5609C34.2543 33.1615 32.778 36.8341 24.8567 36.8341H11.1384C3.21712 36.8341 1.74088 33.1615 1.36281 29.5789L0.685978 22.1337C0.650936 21.7483 1.04587 21.4676 1.39757 21.6292C3.23803 22.4747 7.84675 24.5331 10.4242 25.1613C10.5892 25.2016 10.7232 25.3189 10.7898 25.4752C11.8393 27.9406 14.2454 29.2549 17.7635 29.2549C21.2468 29.2549 23.6855 27.8901 24.7372 25.4214C24.8038 25.265 24.9375 25.1478 25.1027 25.1075C27.8335 24.4412 32.7092 22.1523 34.6225 21.2274Z" fill="#008867"/>
</svg>
