<svg width="78" height="80" viewBox="0 0 78 80" fill="none" xmlns="http://www.w3.org/2000/svg">
<path d="M68.1836 11.5771L44.7494 1.13972C41.3102 -0.379906 36.1115 -0.379906 32.6724 1.13972L9.23819 11.5771C3.31966 14.2165 2.43988 17.8156 2.43988 19.7351C2.43988 21.6546 3.31966 25.2538 9.23819 27.8931L32.6724 38.3305C34.3919 39.0903 36.5514 39.4902 38.7109 39.4902C40.8703 39.4902 43.0298 39.0903 44.7494 38.3305L68.1836 27.8931C74.1021 25.2538 74.9819 21.6546 74.9819 19.7351C74.9819 17.8156 74.1421 14.2165 68.1836 11.5771Z" fill="#008867"/>
<path d="M38.7104 60.1653C37.1908 60.1653 35.6711 59.8453 34.2715 59.2455L7.31818 47.2484C3.19921 45.4089 0 40.4901 0 35.9712C0 34.3316 1.31967 33.012 2.95926 33.012C4.59886 33.012 5.91853 34.3316 5.91853 35.9712C5.91853 38.1307 7.71808 40.93 9.71759 41.8098L36.6709 53.8068C37.9506 54.3667 39.4302 54.3667 40.7099 53.8068L67.6632 41.8098C69.6627 40.93 71.4623 38.1707 71.4623 35.9712C71.4623 34.3316 72.7819 33.012 74.4215 33.012C76.0611 33.012 77.3808 34.3316 77.3808 35.9712C77.3808 40.4501 74.1816 45.4089 70.0626 47.2484L43.1093 59.2455C41.7496 59.8453 40.23 60.1653 38.7104 60.1653Z" fill="#008867"/>
<path d="M38.7104 80C37.1908 80 35.6711 79.6801 34.2715 79.0803L7.31818 67.0832C2.87929 65.1237 0 60.6848 0 55.806C0 54.1664 1.31967 52.8467 2.95926 52.8467C4.59886 52.8467 5.91853 54.1664 5.91853 55.806C5.91853 58.3254 7.39816 60.6048 9.71759 61.6446L36.6709 73.6416C37.9506 74.2015 39.4302 74.2015 40.7099 73.6416L67.6632 61.6446C69.9426 60.6448 71.4623 58.3254 71.4623 55.806C71.4623 54.1664 72.7819 52.8467 74.4215 52.8467C76.0611 52.8467 77.3808 54.1664 77.3808 55.806C77.3808 60.6848 74.5015 65.0837 70.0626 67.0832L43.1093 79.0803C41.7496 79.6801 40.23 80 38.7104 80Z" fill="#008867"/>
</svg>
