<svg width="80" height="80" viewBox="0 0 80 80" fill="none" xmlns="http://www.w3.org/2000/svg">
<path d="M62.2295 22.5473C61.9491 22.5082 61.6687 22.5082 61.3883 22.5473C55.1794 22.3519 50.2523 17.3892 50.2523 11.2932C50.2523 5.07998 55.4197 0 61.8289 0C68.1981 0 73.4056 5.0409 73.4056 11.2932C73.3655 17.3892 68.4384 22.3519 62.2295 22.5473Z" fill="#008867"/>
<path d="M75.2878 49.6275C70.8014 52.5583 64.5123 53.6524 58.704 52.91C60.2262 49.7057 61.0273 46.1497 61.0674 42.3983C61.0674 38.4907 60.1861 34.7784 58.5037 31.535C64.4322 30.7535 70.7213 31.8476 75.2478 34.7784C81.5769 38.8423 81.5769 45.5245 75.2878 49.6275Z" fill="#008867"/>
<path d="M17.8059 22.5473C18.0863 22.5082 18.3667 22.5082 18.6471 22.5473C24.8561 22.3519 29.7832 17.3892 29.7832 11.2932C29.7832 5.0409 24.6157 0 18.2065 0C11.8373 0 6.66992 5.0409 6.66992 11.2932C6.66992 17.3892 11.597 22.3519 17.8059 22.5473Z" fill="#008867"/>
<path d="M18.2462 42.3982C18.2462 46.1887 19.0874 49.7837 20.6096 53.0271C14.9615 53.6133 9.07304 52.441 4.74682 49.6665C-1.58227 45.5634 -1.58227 38.8813 4.74682 34.7782C9.03299 31.9647 15.0817 30.8315 20.7699 31.4567C19.1275 34.7392 18.2462 38.4515 18.2462 42.3982Z" fill="#008867"/>
<path d="M40.5582 54.1995C40.2377 54.1604 39.8772 54.1604 39.5167 54.1995C32.1461 53.965 26.2576 48.0645 26.2576 40.7962C26.2977 33.3716 32.4265 27.3538 40.0775 27.3538C47.6884 27.3538 53.8573 33.3716 53.8573 40.7962C53.8172 48.0645 47.9688 53.965 40.5582 54.1995Z" fill="#008867"/>
<path d="M27.5395 62.2886C21.4908 66.2353 21.4908 72.7221 27.5395 76.6298C34.4294 81.1236 45.7256 81.1236 52.6155 76.6298C58.6642 72.683 58.6642 66.1963 52.6155 62.2886C45.7657 57.7948 34.4694 57.7948 27.5395 62.2886Z" fill="#008867"/>
</svg>
