<svg width="80" height="80" viewBox="0 0 80 80" fill="none" xmlns="http://www.w3.org/2000/svg">
<path d="M77.2093 5.5814H2.7907C1.26512 5.5814 0 4.31628 0 2.7907C0 1.26512 1.26512 0 2.7907 0H77.2093C78.7349 0 80 1.26512 80 2.7907C80 4.31628 78.7349 5.5814 77.2093 5.5814Z" fill="#008867"/>
<path d="M57.3767 78.4744C56.893 79.4418 55.8884 80 54.8837 80C54.4744 80 54.0279 79.8883 53.6558 79.7023L40 72.893L26.3442 79.7023C25.9721 79.8883 25.5256 80 25.1163 80C24.1116 80 23.107 79.4418 22.6233 78.4744C21.9163 77.0604 22.4744 75.386 23.8884 74.7162L37.2093 68.0558V58.6046H42.7907V68.0558L56.1116 74.7162C57.5256 75.386 58.0837 77.0604 57.3767 78.4744Z" fill="#008867"/>
<path d="M6.51163 2.79065V47.8139C6.51163 54.8837 10.2326 58.6046 17.3023 58.6046H62.6977C69.7674 58.6046 73.4884 54.8837 73.4884 47.8139V2.79065H6.51163ZM58.5302 27.2744L46.8093 37.0604C45.7302 37.9534 44.3535 38.3255 43.0512 38.1023C41.7116 37.879 40.5581 37.0604 39.8512 35.8697L35.9442 29.3581L25.0419 38.4372C24.5209 38.8837 23.8884 39.0697 23.2558 39.0697C22.4744 39.0697 21.6558 38.7348 21.0977 38.0651C20.093 36.8744 20.2791 35.1255 21.4698 34.1209L33.1907 24.3348C34.2698 23.4418 35.6465 23.0697 36.9488 23.293C38.2884 23.5162 39.4419 24.3348 40.1488 25.5255L44.0558 32.0372L54.9581 22.9581C56.1488 21.9534 57.8977 22.1395 58.9023 23.3302C59.8698 24.5209 59.7209 26.2697 58.5302 27.2744Z" fill="#008867"/>
</svg>
