<svg width="76" height="80" viewBox="0 0 76 80" fill="none" xmlns="http://www.w3.org/2000/svg">
<path d="M72 32.76H60.44C50.96 32.76 43.24 25.04 43.24 15.56V4C43.24 1.8 41.44 0 39.24 0H22.28C9.96 0 0 8 0 22.28V57.72C0 72 9.96 80 22.28 80H53.72C66.04 80 76 72 76 57.72V36.76C76 34.56 74.2 32.76 72 32.76ZM39.12 55.12L31.12 63.12C30.84 63.4 30.48 63.64 30.12 63.76C29.76 63.92 29.4 64 29 64C28.6 64 28.24 63.92 27.88 63.76C27.56 63.64 27.24 63.4 27 63.16C26.96 63.12 26.92 63.12 26.92 63.08L18.92 55.08C17.76 53.92 17.76 52 18.92 50.84C20.08 49.68 22 49.68 23.16 50.84L26 53.76V37C26 35.36 27.36 34 29 34C30.64 34 32 35.36 32 37V53.76L34.88 50.88C36.04 49.72 37.96 49.72 39.12 50.88C40.28 52.04 40.28 53.96 39.12 55.12Z" fill="#008867"/>
<path d="M59.72 27.2397C63.52 27.2797 68.8 27.2797 73.32 27.2797C75.6 27.2797 76.8 24.5997 75.2 22.9997C69.44 17.1997 59.12 6.75973 53.2 0.839728C51.56 -0.800272 48.72 0.319728 48.72 2.59973V16.5597C48.72 22.3997 53.68 27.2397 59.72 27.2397Z" fill="#008867"/>
</svg>
